<svg width="24" height="24" viewBox="0 0 24 24" fill="none" xmlns="http://www.w3.org/2000/svg">
<path d="M23.7442 7.12841C23.6867 5.87067 23.4869 5.01179 23.1949 4.2603C22.8982 3.47179 22.4331 2.75758 21.8321 2.16731C21.2421 1.56628 20.5276 1.10073 19.7391 0.804022C18.9876 0.512301 18.1288 0.312744 16.871 0.255502C15.6109 0.197999 15.2084 0.184082 11.9995 0.184082C8.79054 0.184082 8.38801 0.197999 7.12791 0.25524C5.87018 0.312744 5.0113 0.512563 4.25981 0.804547C3.47129 1.10126 2.75709 1.56628 2.16682 2.16731C1.56579 2.75732 1.10024 3.47152 0.803533 4.26004C0.511812 5.01179 0.312255 5.87067 0.255014 7.12814C0.197248 8.3885 0.183594 8.79103 0.183594 12C0.183594 15.2092 0.197248 15.6117 0.255014 16.8718C0.312255 18.1293 0.512075 18.9884 0.804321 19.7399C1.10103 20.5281 1.56605 21.2426 2.16708 21.8326C2.75709 22.4336 3.47156 22.8989 4.26007 23.1954C5.01156 23.4876 5.87044 23.6872 7.12818 23.7447C8.38827 23.8022 8.7908 23.8158 11.9997 23.8158C15.2087 23.8158 15.6112 23.8025 16.8713 23.7447C18.129 23.6872 18.9879 23.4876 19.7394 23.1954C21.3267 22.5817 22.5812 21.3269 23.1949 19.7399C23.4871 18.9881 23.6867 18.1293 23.7442 16.8718C23.8017 15.6114 23.8153 15.2089 23.8153 12C23.8153 8.79103 23.8017 8.3885 23.7442 7.12841ZM21.6173 16.7749C21.5648 17.9271 21.3723 18.5525 21.2106 18.969C20.8131 19.9996 19.9985 20.8138 18.9682 21.2114C18.552 21.3731 17.9263 21.5656 16.7741 21.6181C15.5285 21.6751 15.1546 21.6869 11.9995 21.6869C8.8441 21.6869 8.47046 21.6751 7.2248 21.6181C6.07289 21.5656 5.44717 21.3731 5.03073 21.2114C4.51766 21.0218 4.05342 20.7198 3.67216 20.3273C3.27961 19.946 2.97765 19.482 2.78807 18.9687C2.62633 18.5525 2.43386 17.9268 2.38135 16.7746C2.32463 15.5287 2.31255 15.1551 2.31255 12C2.31255 8.84486 2.32463 8.47122 2.38135 7.2253C2.43412 6.07312 2.62633 5.44766 2.78807 5.03122C2.97765 4.51788 3.27961 4.05365 3.67216 3.67239C4.05342 3.27984 4.51766 2.97788 5.03099 2.78856C5.44717 2.62656 6.07289 2.43435 7.22507 2.38157C8.47072 2.32512 8.84437 2.31304 11.9995 2.31304H11.9992C15.1543 2.31304 15.5279 2.32512 16.7739 2.3821C17.926 2.43461 18.5515 2.62708 18.9679 2.78883C19.481 2.97841 19.9452 3.28037 20.3265 3.67266C20.7191 4.05391 21.021 4.51815 21.2103 5.03148C21.3723 5.44766 21.5648 6.07338 21.6173 7.22556C21.674 8.47148 21.6861 8.84512 21.6861 12.0002C21.6861 15.1553 21.6743 15.5287 21.6173 16.7749Z" fill="url(#paint0_linear_65_1411)"/>
<path d="M11.9992 5.93237C8.64824 5.93237 5.93164 8.64897 5.93164 12C5.93164 15.3509 8.64824 18.0675 11.9992 18.0675C15.3505 18.0675 18.0668 15.3509 18.0668 12C18.0668 8.64897 15.3505 5.93237 11.9992 5.93237ZM11.9992 15.9386C9.82431 15.9383 8.06086 14.1751 8.06086 12C8.06086 9.82479 9.82405 8.06133 11.9995 8.06133C14.1747 8.06159 15.9381 9.82479 15.9381 12C15.9381 14.1751 14.1747 15.9386 11.9992 15.9386Z" fill="url(#paint1_linear_65_1411)"/>
<path d="M19.7245 5.69256C19.7245 6.47556 19.0896 7.11047 18.3066 7.11047C17.5233 7.11047 16.8887 6.47556 16.8887 5.69256C16.8887 4.9093 17.5236 4.27466 18.3066 4.27466C19.0896 4.27466 19.7245 4.90956 19.7245 5.69256Z" fill="url(#paint2_linear_65_1411)"/>
<defs>
<linearGradient id="paint0_linear_65_1411" x1="2.16677" y1="21.8326" x2="21.8322" y2="2.16719" gradientUnits="userSpaceOnUse">
<stop stop-color="#FFD600"/>
<stop offset="0.5" stop-color="#FF0100"/>
<stop offset="1" stop-color="#D800B9"/>
</linearGradient>
<linearGradient id="paint1_linear_65_1411" x1="7.70896" y1="16.2904" x2="16.2898" y2="7.70956" gradientUnits="userSpaceOnUse">
<stop stop-color="#FF6400"/>
<stop offset="0.5" stop-color="#FF0100"/>
<stop offset="1" stop-color="#FD0056"/>
</linearGradient>
<linearGradient id="paint2_linear_65_1411" x1="17.3038" y1="6.69523" x2="19.3091" y2="4.68995" gradientUnits="userSpaceOnUse">
<stop stop-color="#F30072"/>
<stop offset="1" stop-color="#E50097"/>
</linearGradient>
</defs>
</svg>
