<?xml version="1.0" standalone="no"?>
<!DOCTYPE svg PUBLIC "-//W3C//DTD SVG 20010904//EN"
 "http://www.w3.org/TR/2001/REC-SVG-20010904/DTD/svg10.dtd">
<svg version="1.0" xmlns="http://www.w3.org/2000/svg"
 width="1280.000000pt" height="717.000000pt" viewBox="0 0 1280.000000 717.000000"
 preserveAspectRatio="xMidYMid meet">

<g transform="translate(0.000000,717.000000) scale(0.100000,-0.100000)"
fill="#000000" stroke="none">
<path d="M6728 5910 c-206 -177 -244 -220 -254 -289 -12 -90 -25 -124 -67
-168 l-42 -45 -35 49 c-55 76 -229 269 -336 373 -107 103 -209 180 -263 199
-54 18 -109 14 -121 -8 -12 -24 -17 -19 321 -386 137 -148 300 -316 363 -372
63 -56 150 -145 193 -198 l77 -95 116 0 115 0 -95 87 c-52 48 -140 131 -195
185 l-99 98 49 50 c51 51 70 61 166 80 35 7 69 22 92 41 28 23 250 290 335
404 9 11 -62 -60 -157 -157 -113 -117 -177 -175 -186 -171 -8 3 -15 10 -15 17
0 6 53 72 116 146 198 231 202 241 22 57 -135 -139 -176 -175 -185 -166 -10
10 25 52 160 193 193 202 188 203 -32 1 -83 -77 -158 -141 -165 -143 -8 -2
-16 4 -19 12 -4 10 52 74 165 190 93 97 168 176 165 176 -2 0 -88 -72 -189
-160z"/>
<path d="M6169 5203 c-35 -35 -104 -99 -154 -141 -49 -41 -94 -79 -99 -84 -6
-4 26 -8 71 -8 l80 0 39 49 c22 27 71 84 110 128 l71 78 -27 22 -27 22 -64
-66z"/>
<path fill="#E31E25"  d="M5895 4899 c-596 -44 -1162 -163 -1725 -361 -69 -25 -124 -49 -123
-54 3 -17 265 -789 269 -793 2 -2 86 23 186 57 426 143 807 226 1278 279 198
22 862 25 1070 5 463 -45 865 -130 1292 -272 111 -37 204 -67 204 -66 4 4 264
793 264 802 0 6 -82 38 -182 72 -556 186 -1085 292 -1668 332 -168 11 -704 11
-865 -1z m260 -281 c14 -6 25 -19 25 -30 0 -15 -8 -18 -45 -18 l-45 0 0 -54
c0 -59 9 -69 49 -54 18 6 29 5 40 -7 14 -13 14 -17 0 -31 -9 -8 -35 -18 -57
-21 -34 -5 -44 -1 -66 20 -22 22 -26 35 -26 86 0 76 6 90 44 107 39 17 49 17
81 2z m523 -25 c3 -19 -1 -23 -21 -23 -21 0 -25 -6 -31 -46 -3 -26 -6 -62 -6
-81 0 -38 -21 -53 -46 -32 -14 11 -15 26 -10 86 7 72 7 73 -18 73 -28 0 -44
30 -23 45 8 6 43 8 83 5 62 -5 69 -7 72 -27z m-1557 -9 c11 -14 10 -19 -10
-35 -13 -11 -29 -19 -36 -19 -18 0 -45 -28 -45 -46 0 -11 4 -12 19 -4 61 32
113 -10 119 -99 4 -51 1 -61 -19 -79 -34 -33 -85 -39 -117 -15 -22 16 -30 36
-44 104 -26 122 -15 150 70 190 47 22 47 22 63 3z m547 -7 c6 -7 13 -56 14
-108 3 -90 2 -94 -19 -97 -23 -3 -29 8 -36 73 -3 28 -5 27 -31 -28 -49 -102
-80 -87 -93 46 -10 94 -2 124 29 112 18 -7 27 -34 28 -80 l1 -30 20 40 c45 87
63 102 87 72z m1436 2 c75 4 101 -49 76 -154 -11 -49 -34 -67 -82 -63 -35 3
-36 2 -42 -35 -7 -41 -30 -58 -50 -36 -11 11 -11 38 1 144 18 159 19 159 41
150 9 -4 34 -7 56 -6z m568 -109 c28 -28 30 -34 23 -77 -10 -66 -21 -90 -50
-109 -22 -14 -32 -15 -65 -5 -57 17 -74 48 -65 115 9 75 35 106 86 106 32 0
47 -7 71 -30z"/>
<path fill="#E31E25"  d="M5050 4393 c0 -47 12 -66 36 -61 21 4 29 36 20 74 -5 17 -13 24 -31
24 -22 0 -25 -4 -25 -37z"/>
<path fill="#E31E25" d="M7075 4481 c-7 -54 -2 -71 21 -71 19 0 36 45 32 84 -2 23 -9 32 -24
34 -19 3 -23 -3 -29 -47z"/>
<path fill="#E31E25" d="M7583 4433 c-4 -9 -7 -35 -7 -57 -1 -37 1 -41 24 -41 21 0 26 6 33
43 6 30 5 48 -4 58 -16 19 -38 18 -46 -3z"/>
<path fill="#E31E25"  d="M8435 3837 l-55 -173 -88 -28 c-48 -16 -111 -38 -141 -49 l-55 -20
135 -47 c158 -55 280 -105 390 -160 50 -26 79 -36 79 -27 0 7 -11 77 -25 155
-14 78 -25 149 -25 157 0 15 65 57 199 128 l84 45 -71 36 c-82 41 -348 156
-362 156 -5 0 -34 -78 -65 -173z"/>
<path fill="#E31E25" d="M4060 3960 c-124 -52 -310 -142 -310 -149 1 -3 57 -37 126 -76 69
-38 130 -76 136 -82 7 -9 3 -59 -16 -170 -14 -86 -24 -158 -22 -160 1 -2 43
15 92 38 141 65 300 129 409 165 115 38 122 29 -70 93 l-110 37 -58 172 c-33
95 -64 172 -70 172 -7 0 -55 -19 -107 -40z"/>
<path d="M2977 3808 c-57 -12 -304 -141 -379 -197 -118 -90 -170 -188 -172
-326 -1 -44 3 -103 7 -131 l8 -50 -57 -38 c-120 -80 -203 -187 -257 -330 -27
-72 -30 -96 -34 -221 -4 -110 -2 -154 12 -204 35 -134 105 -230 204 -278 46
-23 69 -28 131 -28 65 0 85 5 142 33 115 56 217 189 262 342 41 137 40 332 -3
498 -11 39 -16 72 -12 72 3 0 21 -4 39 -9 27 -8 34 -7 42 9 17 31 11 131 -10
177 -21 47 -43 57 -120 57 -52 0 -57 5 -65 67 -17 122 30 170 243 254 285 112
257 98 255 134 0 18 -13 49 -27 71 -51 77 -131 115 -209 98z m-407 -1110 c22
-106 26 -251 9 -312 -26 -93 -120 -129 -172 -66 -84 99 -37 386 85 526 l33 37
13 -44 c7 -24 21 -87 32 -141z"/>
<path d="M1219 3760 c-187 -30 -400 -154 -452 -263 -23 -47 -21 -75 6 -130
l24 -46 -50 -48 c-139 -136 -249 -364 -308 -643 -32 -146 -32 -388 -1 -503 93
-340 372 -540 699 -499 266 34 478 183 654 462 74 117 123 235 165 398 84 328
62 654 -63 912 -38 79 -59 108 -132 180 -92 92 -166 136 -276 164 -76 20 -195
27 -266 16z m230 -331 c93 -40 165 -137 213 -289 21 -67 23 -93 22 -250 0
-152 -3 -189 -26 -286 -74 -312 -242 -572 -434 -669 -81 -41 -187 -47 -262
-15 -97 42 -173 150 -207 294 -19 80 -19 253 0 355 33 174 119 374 206 484 98
121 200 177 340 185 77 4 89 7 89 22 0 28 -77 118 -127 150 -42 27 -44 29 -22
34 13 3 33 7 44 10 37 9 113 -3 164 -25z"/>
<path d="M6350 3749 c-465 -60 -799 -363 -777 -704 8 -135 71 -241 178 -300
63 -34 143 -39 197 -11 40 21 41 44 2 81 -76 73 -92 234 -36 350 37 75 128
168 197 200 29 13 55 23 57 21 2 -3 -4 -82 -13 -178 -46 -492 -104 -786 -190
-964 -68 -141 -142 -193 -253 -178 -45 6 -49 4 -60 -20 -18 -40 -15 -145 6
-185 30 -59 83 -94 152 -99 53 -4 69 0 127 28 39 19 89 56 123 90 l58 58 5
-49 c9 -77 28 -103 97 -132 358 -156 722 -21 825 306 51 159 43 329 -21 456
-80 161 -264 263 -501 278 -51 3 -93 9 -93 12 0 3 7 56 15 116 8 61 17 175 20
255 3 80 8 169 11 198 l5 52 38 0 c112 0 299 -50 450 -121 l84 -39 46 47 c46
49 103 151 115 210 12 53 -14 87 -97 127 -175 84 -520 127 -767 95z m191
-1199 c191 -60 279 -232 210 -411 -15 -40 -69 -98 -115 -122 -35 -19 -57 -22
-141 -22 -90 1 -108 4 -176 33 -118 51 -115 44 -73 132 38 78 117 307 129 373
7 37 8 37 55 37 26 0 76 -9 111 -20z"/>
<path d="M8090 3707 c-6 -23 -16 -57 -22 -75 -5 -18 -8 -35 -6 -36 1 -2 59 16
127 39 l125 42 -107 36 -107 35 -10 -41z"/>
<path d="M4500 3719 c-30 -10 -75 -26 -99 -35 l-45 -17 125 -43 c68 -24 125
-43 126 -44 0 0 -8 36 -20 80 -12 44 -24 80 -27 79 -3 0 -30 -9 -60 -20z"/>
<path d="M8994 3352 c-58 -27 -107 -82 -151 -168 -37 -73 -39 -74 -68 -67 -16
5 -73 8 -125 7 -73 -1 -108 -6 -152 -23 -160 -62 -296 -229 -350 -430 -15 -57
-21 -109 -22 -211 -1 -159 19 -240 83 -337 91 -135 249 -188 378 -126 l40 20
-5 -206 c-4 -204 -4 -206 20 -241 34 -50 112 -76 180 -59 30 7 54 20 63 33 8
12 20 94 30 201 9 99 19 199 22 222 l6 42 36 -20 c144 -77 374 79 497 336 24
50 55 135 70 190 24 86 27 120 28 245 1 168 -14 233 -71 300 -49 57 -86 74
-163 74 -73 0 -124 -21 -197 -81 -24 -19 -43 -29 -43 -22 0 7 21 75 47 151
l47 139 -22 21 c-30 31 -122 36 -178 10z m-268 -528 c-4 -15 -18 -99 -32 -188
-29 -189 -38 -225 -70 -287 -31 -62 -66 -89 -116 -89 -78 0 -114 76 -105 220
10 155 78 299 163 347 29 17 55 23 103 23 l63 0 -6 -26z m517 1 c29 -28 40
-85 34 -174 -10 -153 -69 -313 -139 -376 -88 -80 -138 -24 -138 154 0 193 105
411 200 411 16 0 35 -7 43 -15z"/>
<path d="M4474 3201 c-49 -22 -54 -33 -54 -118 l0 -66 -29 40 c-58 81 -145
108 -247 78 -48 -14 -69 -28 -125 -83 -101 -102 -152 -212 -194 -424 -25 -124
-53 -192 -114 -273 -96 -128 -289 -153 -398 -52 -24 22 -43 43 -43 47 0 5 24
13 53 20 93 21 212 85 277 149 71 69 105 137 127 251 15 73 15 85 0 145 -28
112 -89 181 -181 206 -23 7 -77 9 -124 6 -210 -13 -373 -172 -443 -432 -32
-117 -32 -334 -1 -419 60 -162 181 -271 340 -307 64 -14 196 -13 257 2 81 20
165 67 231 130 l61 60 29 -38 c74 -98 157 -146 251 -147 67 -1 73 -7 46 -46
-78 -118 -162 -129 -257 -33 -25 25 -52 60 -60 78 -9 18 -23 35 -31 38 -23 9
-70 -38 -95 -95 -31 -72 -25 -175 13 -241 90 -153 296 -193 473 -90 169 97
321 373 409 743 64 269 93 612 62 721 -20 66 -59 120 -108 148 -45 26 -72 26
-125 2z m-1049 -351 c37 -14 59 -70 46 -116 -21 -74 -104 -143 -194 -159 l-38
-7 7 38 c22 124 66 213 119 239 36 18 29 17 60 5z m909 -20 c21 -19 41 -50 51
-79 15 -45 14 -54 -5 -147 -41 -190 -68 -263 -118 -316 -33 -36 -89 -39 -119
-5 -41 45 -48 69 -47 172 2 218 85 405 181 405 12 0 38 -14 57 -30z"/>
<path d="M10716 3155 c-116 -41 -178 -178 -226 -499 -24 -162 -53 -234 -126
-315 -70 -77 -111 -96 -214 -96 -75 0 -91 3 -133 28 -42 25 -86 72 -76 81 2 1
42 15 89 29 141 43 264 136 316 239 106 208 50 443 -117 492 -198 59 -421 -50
-522 -255 -64 -132 -82 -213 -82 -384 0 -134 2 -156 24 -208 81 -202 240 -308
461 -308 109 0 196 22 272 70 l48 31 14 -34 c36 -87 197 -126 260 -63 19 19
24 41 34 137 25 255 163 648 254 725 40 34 75 33 89 -2 15 -37 5 -163 -26
-343 -35 -203 -50 -399 -35 -445 22 -68 119 -114 201 -96 64 15 77 34 94 141
29 178 116 466 187 620 63 137 132 189 157 119 15 -44 14 -84 -8 -234 -29
-200 -33 -254 -21 -333 14 -98 43 -163 95 -211 83 -77 234 -93 348 -38 106 52
222 198 288 362 42 106 43 154 4 196 -52 55 -128 75 -157 42 -8 -10 -27 -56
-41 -103 -28 -90 -88 -196 -128 -224 -36 -25 -85 -21 -105 9 -42 64 -38 167
14 375 21 85 26 130 26 235 1 119 -1 133 -22 167 -48 77 -168 101 -270 53 -88
-41 -195 -154 -261 -276 l-28 -50 -5 105 c-7 123 -31 187 -87 223 -48 32 -137
31 -209 -2 -62 -29 -155 -115 -208 -191 -21 -30 -39 -52 -41 -51 -2 2 9 44 23
93 37 124 38 132 24 159 -24 45 -97 58 -174 30z m-623 -307 c34 -18 46 -40 47
-81 0 -50 -20 -87 -72 -131 -41 -35 -141 -76 -154 -63 -12 11 15 119 45 184
20 43 40 69 63 83 39 23 42 24 71 8z"/>
<path d="M7392 3123 c-98 -48 -178 -226 -217 -483 -63 -410 83 -691 347 -667
32 3 58 1 58 -3 0 -14 -63 -92 -92 -113 -34 -25 -120 -27 -165 -3 -18 9 -47
34 -64 56 -52 65 -94 48 -140 -54 -24 -55 -22 -131 4 -183 63 -121 247 -174
404 -114 206 78 379 348 483 756 64 250 104 569 81 652 -31 113 -139 163 -248
114 -60 -28 -69 -54 -76 -212 -14 -290 -65 -496 -145 -581 -50 -54 -124 -27
-138 50 -20 106 41 437 112 605 37 89 38 99 13 131 -46 59 -150 83 -217 49z"/>
<path d="M5305 2879 c-101 -20 -243 -29 -315 -19 -64 9 -75 8 -92 -6 -39 -36
-8 -135 63 -201 61 -56 178 -83 295 -68 52 6 64 12 100 50 23 24 49 64 58 91
19 56 21 135 4 152 -13 13 -53 14 -113 1z"/>
</g>
</svg>
