<svg width="15" height="11" viewBox="0 0 15 11" fill="none" xmlns="http://www.w3.org/2000/svg">
<path d="M13.336 0.0229492H1.66426C0.810073 0.0229492 0.115234 0.717789 0.115234 1.57198V9.4279C0.115234 10.2819 0.810073 10.9768 1.66426 10.9768H13.336C14.1902 10.9768 14.8851 10.2819 14.8851 9.4279V1.57198C14.8851 0.717789 14.1902 0.0229492 13.336 0.0229492ZM13.336 0.83447C13.3671 0.83447 13.3968 0.839886 13.4268 0.843661L7.50015 6.28094L1.57351 0.843661C1.60354 0.839886 1.63325 0.83447 1.66426 0.83447H13.336ZM14.0736 9.4279C14.0736 9.8344 13.7427 10.1652 13.336 10.1652H1.66426C1.2576 10.1652 0.926755 9.8344 0.926755 9.4279V1.57198C0.926755 1.50453 0.938735 1.44036 0.955802 1.37833L5.44846 5.49994L2.61757 8.09697C2.45248 8.24828 2.44132 8.50511 2.59279 8.67021C2.67288 8.75735 2.78217 8.80166 2.89196 8.80166C2.98994 8.80166 3.08824 8.76637 3.16619 8.69482L6.04861 6.05053L7.22576 7.13037C7.30339 7.20159 7.40169 7.2372 7.49999 7.2372C7.59829 7.2372 7.69676 7.20159 7.77438 7.13037L8.95154 6.05053L11.834 8.69482C11.9119 8.76637 12.0102 8.80166 12.1082 8.80166C12.218 8.80166 12.3274 8.75751 12.4073 8.67021C12.5588 8.50511 12.5478 8.24828 12.3827 8.09697L9.55185 5.49994L14.0445 1.37849C14.0616 1.44053 14.0736 1.50469 14.0736 1.57214V9.4279Z" fill="#C59D5F"/>
</svg>
