<svg width="15" height="15" viewBox="0 0 15 15" fill="none" xmlns="http://www.w3.org/2000/svg">
<path d="M7.4999 14.8848C7.26768 14.8848 7.0527 14.7621 6.93471 14.5622L6.21509 13.345C4.73745 10.8471 3.34202 8.48786 2.86529 7.53093C2.51869 6.82017 2.34424 6.06133 2.34424 5.27065C2.34424 2.42779 4.65703 0.11499 7.4999 0.11499C10.3428 0.11499 12.6556 2.42779 12.6556 5.27065C12.6556 6.06084 12.4811 6.81952 12.1375 7.52568C12.1334 7.53422 12.1288 7.54275 12.1243 7.55112C11.6384 8.52084 10.2518 10.865 8.78422 13.3457L8.06509 14.5622C7.9471 14.7621 7.73211 14.8848 7.4999 14.8848ZM7.4999 1.42787C5.38092 1.42787 3.65711 3.15167 3.65711 5.27065C3.65711 5.86013 3.78692 6.42549 4.04277 6.95097C4.49571 7.85964 5.94332 10.307 7.34334 12.6738L7.4999 12.9385L7.65433 12.6774C9.05516 10.309 10.5038 7.86014 10.9593 6.94555C10.9615 6.94129 10.9634 6.93702 10.9657 6.93292C11.2158 6.41253 11.3427 5.85324 11.3427 5.27065C11.3427 3.15167 9.61888 1.42787 7.4999 1.42787Z" fill="white"/>
<path d="M7.49974 7.61112C6.10907 7.61112 4.97754 6.47975 4.97754 5.08909C4.97754 3.69843 6.10907 2.56689 7.49974 2.56689C8.8904 2.56689 10.0218 3.69843 10.0218 5.08909C10.0218 6.47975 8.8904 7.61112 7.49974 7.61112ZM7.49974 3.87977C6.83296 3.87977 6.29041 4.42231 6.29041 5.08909C6.29041 5.75587 6.83296 6.29825 7.49974 6.29825C8.16651 6.29825 8.70889 5.75587 8.70889 5.08909C8.70889 4.42231 8.16651 3.87977 7.49974 3.87977Z" fill="white"/>
</svg>
