<svg width="15" height="15" viewBox="0 0 15 15" fill="none" xmlns="http://www.w3.org/2000/svg">
<path fill="white" d="M11.5539 14.0809C9.2822 14.0812 6.41283 12.3761 4.1183 10.2312C1.00683 7.32273 -1.23971 3.42481 0.755399 1.27329C0.882198 1.13653 1.04432 1.03155 1.2371 0.960834C1.47503 0.873608 1.90608 0.703673 2.51791 0.455547L2.51924 0.455079C2.80366 0.339816 3.07675 0.22798 3.28553 0.142156C3.77639 -0.0590868 4.35207 0.113963 4.62599 0.545109L6.36001 3.277C6.54896 3.5745 6.55762 3.94879 6.3825 4.25377L5.34362 6.06293L8.57723 9.08578L10.5122 8.11461C10.8391 7.95075 11.2393 7.95916 11.5572 8.13564L14.272 9.64153L14.6314 9.85882C14.9789 10.139 15.1004 10.6055 14.9106 11.0099C14.8325 11.1756 14.7345 11.3847 14.6314 11.6066L14.7573 11.3364L14.5696 11.7396C14.3116 12.2959 14.1269 12.7053 14.0347 12.925C13.9592 13.105 13.8468 13.2566 13.7008 13.3751C13.0966 13.8647 12.363 14.0809 11.5539 14.0809ZM3.00044 1.44852C2.36612 1.70568 1.91608 1.88325 1.66281 1.97608C1.64215 1.98356 1.63432 1.98979 1.63432 1.98979C0.207718 3.52839 2.21833 6.91307 4.94307 9.46023C7.66781 12.0072 11.2878 13.8866 12.9365 12.5515H12.9363C12.936 12.5515 12.9418 12.5438 12.949 12.527C13.0493 12.2881 13.2391 11.8674 13.5135 11.2761L13.8043 10.6498L11.0126 9.1012L9.06126 10.0805C8.64471 10.2893 8.14085 10.2196 7.80711 9.90757L4.4647 6.78301C4.1308 6.47071 4.05632 5.99954 4.27975 5.6106L5.3273 3.78649L3.66976 1.17532C3.47748 1.25429 3.24337 1.34992 3.00044 1.44852Z"/>
</svg>
